<svg xmlns="http://www.w3.org/2000/svg" width="256" height="256" xmlns:v="https://vecta.io/nano"><path d="M23 165h33v61h26v-61h33v61h26v-61h33v61h26v-61h33v61h15c1 1 1 1 1.098 3.504l-.035 3.059-.027 3.066L249 238c-3.468 1.734-7.49 1.136-11.307 1.127l-2.961.005c-3.294.004-6.589.001-9.883-.002l-7.06.005c-6.407.005-12.814.003-19.22 0-6.013-.003-12.026-.001-18.038.001-12.633.003-25.267 0-37.9-.006-10.851-.004-21.702-.004-32.553.001l-37.766.004c-6.668-.002-13.337-.002-20.005.002-6.267.003-12.533.001-18.8-.005a4532.38 4532.38 0 0 0-6.921.001c-3.135.003-6.27-.001-9.405-.006l-2.805.007c-6.261-.02-6.261-.02-7.375-1.134a97.71 97.71 0 0 1-.125-5.5l-.008-3.031C7 227 7 227 8 226h15v-61z" fill="#a79ba7"/><path d="M237.875 128.625c3.125.375 3.125.375 5.25 1.938 5.815 7.56 5.815 7.56 6 13.375-.945 4.885-3.54 8.677-7.125 12.063-3.062 1.313-3.062 1.313-6 1-2.875-2.312-2.875-2.312-5-5v-2l-3.266.011-78.617.196-38.018.095-33.132.075-17.548.047-16.51.03-6.065.024-8.271.004-2.432.035c-3.726-.04-5.938-.391-9.142-2.359C16 146 16 146 15.438 143c.706-3.768 1.487-4.729 4.563-7 2.956-.384 5.537-.524 8.491-.481l2.621-.01 8.71.037 6.238-.002 16.951.05 17.709.032 33.542.085 38.183.087L231 136l.875-2.375c1.496-3.491 2.172-4.501 6-5z" fill="#a69ba6"/><path d="M201 47l13.19-.055 4.49-.021 6.441-.022 3.92-.016C232 47 232 47 233 48l.114 6.815v2.158l-.016 7.094-.004 4.906-.025 12.937-.022 15.509L233 121h-33l-.049-25.496-.027-15.591-.019-12.566-.011-4.801-.008-6.709-.007-3.863C200 49 200 49 201 47zm-1 118h33v61h-33v-61z" fill="#89c8fe"/><path d="M141 165h33v61h-33v-61z" fill="#6af4c1"/><path d="M82 165h33v61H82v-61z" fill="#ffe076"/><path d="M23 165h33v61H23v-61z" fill="#fe636f"/><path d="M148.844 74.867l2.074-.003 4.348.005 6.676-.006 4.215.004 3.9.003C173 75 173 75 174 76l.114 4.244v2.73l-.016 2.967-.004 3.022-.031 9.599-.014 6.49L174 121h-33l-.055-19.171-.021-6.527-.022-9.36-.016-2.967v-2.73l-.007-2.416c.286-4.353 4.503-2.958 7.964-2.961z" fill="#6cf5c1"/><path d="M89.844 95.867l2.074-.003 4.348.005 6.676-.006 4.215.004 3.9.003C114 96 114 96 115 97l.098 5.348-.008 2.946-.028 3.769L115 121H82l-.062-11.937-.028-3.769-.008-2.946-.016-3.031c.238-4.847 3.882-3.446 7.957-3.449z" fill="#ffe076"/><path d="M226 47h6c1 1 1 1 1.12 3.892l-.007 3.923v2.158l-.016 7.094-.004 4.906-.025 12.937-.02 13.191L233 121h-5l-.031-2.72-.308-25.339-.158-13.028-.156-12.566-.056-4.801-.086-6.709-.047-3.863c.044-2.902.044-2.902-1.158-4.974z" fill="#61b7fe"/><path d="M109 165h6v61h-6v-61z" fill="#ffd266"/><path d="M50 165h6v61h-6v-61z" fill="#fd4a57"/><path d="M228 165h5v61h-5v-61z" fill="#61b7ff"/><path d="M169 165h5v61h-5v-61z" fill="#06e59b"/><path d="M167 75h6c1 1 1 1 1.12 2.829l-.007 2.416v2.73l-.016 2.967-.004 3.022-.031 9.599-.014 6.49L174 121h-6l-1-46z" fill="#10e69f"/><path d="M41.063 102.523c3.552.874 4.948 2.493 6.938 5.477.698 2.84.698 5.16 0 8-1.989 2.984-3.385 4.603-6.937 5.477-3.923.282-5.734-.257-9.062-2.477-2.219-3.329-2.759-5.139-2.477-9.062 1.464-5.951 5.948-7.816 11.539-7.414z" fill="#fe636e"/><path d="M102 66c3.286 2.429 4.708 4.123 6 8 0 3.606-.859 5.145-3 8-2.393 2.393-3.094 2.321-6.375 2.375-3.378-.065-4.34-.162-7.125-2.25C88.982 78.558 88.57 76.389 89 72c3.721-5.582 6.295-6.682 13-6z" fill="#ffe176"/><path d="M164 46c2.156 2.291 2.925 3.819 3.125 6.965-.221 3.701-.813 5.635-3.125 8.598-4.209 2.017-7.567 1.764-12 .438-2.55-2.151-2.925-3.75-3.875-6.937-.151-3.699.682-5.139 2.875-8.062 4.131-4.131 7.796-3.082 13-1z" fill="#6af4c1"/><path d="M220.164 17.297c3.144 1.204 4.3 2.76 5.836 5.703.586 4.105.422 6.223-1.562 9.875C221.236 35.666 219.219 36 215 36c-2.923-1.364-4.728-2.728-7-5-.758-3.709-.957-7.434 1.063-10.738 3.485-3.361 6.587-3.899 11.102-2.965z" fill="#8ac8fe"/><path d="M108 96h6c1 1 1 1 1.114 3.317l-.016 3.031-.01 3.271-.025 3.443-.014 3.455L115 121h-6l-1-25z" fill="#ffd266"/><path d="M157 44c6.36 1.32 6.36 1.32 9 4.125 1.353 3.889 1.342 6.972 0 10.875-2.312 2.563-2.312 2.563-5 4-2.312-.25-2.312-.25-4-1l2.5-1.5c2.666-2.666 2.896-3.034 3-6.562-.167-3.791-.167-3.791-1.875-5.875-1.647-1.122-1.647-1.122-3.625-2.062v-2z" fill="#16e8a2"/><path d="M39 103c5.373.478 5.373.478 7.875 2.563 1.613 3.495 1.92 6.711 1.125 10.438-2.25 3.063-2.25 3.063-5 5-2.312-.187-2.312-.187-4-1l2.5-1.5c2.666-2.666 2.896-3.034 3-6.562-.158-3.788-.158-3.788-1.875-5.812L41 105l-2-2z" fill="#fd4f5c"/><path d="M216 17c3.722.254 5.557.604 8.375 3.125 2.064 3.652 2.216 5.735 1.625 9.875-1.625 2.875-1.625 2.875-4 5-3.25.813-3.25.813-6 1 1.264-2.528 2.528-2.764 5-4 1.546-3.092 1.294-5.594 1-9-1.771-2.355-1.771-2.355-4-4l-2-2z" fill="#6abbfe"/><path d="M98 66c5.446.484 5.446.484 7.813 2.688 1.486 2.894 2.054 5.053 2.188 8.313-1.374 2.879-2.75 4.75-5 7-2.125-.375-2.125-.375-4-1l2.5-2.125c2.726-2.642 2.726-2.642 3.063-5.937-.682-3.564-1.801-4.664-4.562-6.937l-2-2z" fill="#ffd466"/></svg>