<?xml version="1.0" encoding="iso-8859-1"?>
<!-- Uploaded to: SVG Repo, www.svgrepo.com, Generator: SVG Repo Mixer Tools -->
<svg version="1.1" id="Layer_1" xmlns="http://www.w3.org/2000/svg" xmlns:xlink="http://www.w3.org/1999/xlink" 
	 viewBox="0 0 512.042 512.042" xml:space="preserve">
<rect x="434.184" y="382.353" transform="matrix(0.707 -0.7072 0.7072 0.707 -186.9343 451.327)" width="34.079" height="137.83"/>
<path style="fill:#FFFFFF;" d="M238.422,468.745c-127.24,0-230.389-103.148-230.389-230.389S111.181,7.967,238.422,7.967
	s230.389,103.148,230.389,230.389C468.682,365.543,365.609,468.616,238.422,468.745z"/>
<path style="fill:#E21B1B;" d="M238.422,16.031c122.822,0,222.388,99.567,222.388,222.388s-99.567,222.389-222.388,222.389
	S16.032,361.243,16.032,238.42c0-0.011,0-0.021,0-0.032C16.156,115.617,115.65,16.123,238.421,16 M238.422,0
	C106.763,0,0.034,106.73,0.034,238.388s106.73,238.388,238.388,238.388S476.81,370.046,476.81,238.388l0,0
	C476.792,106.742,370.068,0.032,238.422,0.032V0z"/>
<path style="fill:#FFFFFF;" d="M238.422,434.147c-108.114,0.013-195.769-87.62-195.783-195.734
	C42.626,130.299,130.259,42.644,238.373,42.63s195.769,87.62,195.783,195.734c0,0.008,0,0.016,0,0.024
	C434.028,346.44,346.473,434.005,238.422,434.147z"/>
<path style="fill:#CCCCCC;" d="M238.422,46.63c105.906,0.013,191.748,85.877,191.734,191.782
	c-0.013,105.906-85.877,191.748-191.782,191.734C132.478,430.133,46.64,344.284,46.64,238.388
	C46.767,132.526,132.56,46.745,238.422,46.63 M238.422,38.63C128.098,38.613,38.65,128.033,38.632,238.356
	c-0.018,110.324,89.403,199.772,199.726,199.79s199.772-89.403,199.79-199.726c0-0.011,0-0.021,0-0.032
	C438.147,128.077,348.732,38.648,238.422,38.63z"/>
<rect x="103.38" y="247.002" style="fill:#939393;" width="63.905" height="81.66"/>
<rect x="194.58" y="184.323" style="fill:#E21B1B;" width="63.905" height="144.336"/>
<rect x="285.76" y="118.346" width="63.905" height="210.313"/>
</svg>