<?xml version="1.0" encoding="iso-8859-1"?>
<!-- Uploaded to: SVG Repo, www.svgrepo.com, Generator: SVG Repo Mixer Tools -->
<svg version="1.1" id="Layer_1" xmlns="http://www.w3.org/2000/svg" xmlns:xlink="http://www.w3.org/1999/xlink" 
	 viewBox="0 0 512 512" xml:space="preserve">
<circle style="fill:#324A5E;" cx="256" cy="256" r="256"/>
<path style="fill:#2B3B4E;" d="M510.611,282.767L369.778,141.934l-176.269,90.505v157.884l-5.603,36.343l84.778,84.778
	C397.395,503.418,497.793,406.114,510.611,282.767z"/>
<rect x="199.111" y="141.929" style="fill:#FFFFFF;" width="170.667" height="113.778"/>
<rect x="282.152" y="141.929" style="fill:#E6F3FF;" width="87.631" height="113.778"/>
<rect x="187.906" y="141.929" style="fill:#FFD15D;" width="17.239" height="284.737"/>
<circle style="fill:#FC6F58;" cx="282.721" cy="199.68" r="37.926"/>
<path style="fill:#F1543F;" d="M282.721,161.759c-0.193,0-0.383,0.012-0.574,0.016v75.823c0.191,0.003,0.381,0.014,0.574,0.014
	c20.945,0,37.926-16.98,37.926-37.926S303.666,161.759,282.721,161.759z"/>
<rect x="254.621" y="190.561" style="fill:#FFFFFF;" width="56.186" height="18.261"/>
<rect x="282.152" y="190.561" style="fill:#E6F3FF;" width="28.667" height="18.261"/>
</svg>